<svg fill="none" height="480" viewBox="0 0 480 480" width="480" xmlns="http://www.w3.org/2000/svg"><path d="m0 0h480v480h-480z" fill="#fff"/><g clip-rule="evenodd" fill="#2d8c3c" fill-rule="evenodd"><path d="m360.6 322.075c-3.35-6.7-8.375-11.725-18.425-18.425-8.375-5.025-13.4-11.725-13.4-25.125-1.675-18.425 3.35-30.15 1.675-55.275 0-20.1-8.375-35.175-11.725-43.55-5.025-10.05-6.7-18.425-6.7-30.15 0-10.05 0-35.175 0-41.875s-3.35-13.4004-8.375-15.0754c-6.7-3.35-13.4-1.675-18.425 5.025-5.025 5.0254-15.075 15.0754-21.775 21.7754-8.375 8.375-13.4 10.05-21.775 10.05s-13.4-1.675-21.775-10.05c-6.7-6.7-15.075-16.75-21.775-21.7754-5.025-5.025-11.725-6.7-18.425-5.025-5.025 3.35-8.375 8.3754-8.375 15.0754v41.875c0 11.725-1.675 20.1-6.7 30.15-5.025 8.375-11.725 23.45-11.725 43.55-1.675 25.125 3.35 36.85 1.675 55.275 0 13.4-6.7 20.1-13.4 25.125-10.05 6.7-15.075 10.05-18.425 18.425-1.675 5.025-3.35 11.725 5.025 15.075 3.35 1.675 8.375 1.675 13.4 0 3.35-1.675 8.375-3.35 11.725-3.35s5.025 1.675 5.025 6.7 1.675 6.7 6.7 6.7c3.35 0 6.7-1.675 8.375-6.7 1.675-6.7 3.35-11.725 6.7-10.05 3.35 0 5.025 3.35 5.025 10.05 1.675 8.375-3.35 15.075-8.375 20.1-6.7 6.7-13.4 13.4-10.05 20.1 1.675 5.025 6.7 8.375 16.75 10.05s25.125 0 36.85 0c10.05 0 16.75-5.025 18.425-11.725s-1.675-10.05-1.675-15.075c1.675-3.35 3.35-5.025 6.7-5.025s5.025 1.675 6.7 5.025c1.675 5.025-3.35 8.375-1.675 15.075s6.7 11.725 18.425 11.725h36.85c10.05-1.675 15.075-3.35 16.75-10.05 1.675-8.375-3.35-13.4-10.05-20.1-6.7-5.025-10.05-11.725-8.375-20.1 0-5.025 1.675-10.05 5.025-10.05s5.025 5.025 6.7 10.05 5.025 6.7 8.375 6.7 6.7-1.675 6.7-6.7 3.35-6.7 5.025-6.7c3.35 0 8.375 1.675 11.725 3.35 5.025 1.675 10.05 1.675 13.4 0 5.025-3.35 3.35-10.05 1.675-15.075zm-75.375-144.05c5.025 0 8.375 3.35 8.375 8.375s-3.35 8.375-8.375 8.375-8.375-3.35-8.375-8.375c1.675-5.025 5.025-8.375 8.375-8.375zm-90.45 0c5.025 0 8.375 3.35 8.375 8.375s-3.35 8.375-8.375 8.375-8.375-3.35-8.375-8.375 3.35-8.375 8.375-8.375zm45.225 170.85c-21.775 0-38.525-16.75-38.525-38.525 0-20.1 16.75-38.525 38.525-38.525 20.1 0 38.525 16.75 38.525 38.525s-18.425 38.525-38.525 38.525zm53.6-103.85c-3.35 6.7-10.05 10.05-18.425 11.725-10.05 1.675-16.75-3.35-21.775-6.7-5.025-5.025-8.375-8.375-15.075-8.375s-10.05 3.35-15.075 8.375-11.725 8.375-21.775 6.7c-8.375 0-15.075-5.025-18.425-11.725-6.7-11.725-1.675-26.8 8.375-35.175 13.4-11.725 26.8-15.075 46.9-15.075s33.5 3.35 46.9 15.075c10.05 8.375 16.75 23.45 8.375 35.175z"/><path d="m240 198.125c-10.05 0-18.425 6.7-18.425 15.075s8.375 15.075 18.425 15.075 18.425-6.7 18.425-15.075-8.375-15.075-18.425-15.075z"/></g></svg>